<svg width="1057" height="925" viewBox="0 0 1057 925" fill="none" xmlns="http://www.w3.org/2000/svg">
<path d="M9.46271e-06 816.5C3.49799e-05 524.618 236.618 288 528.5 288C820.383 288 1057 524.618 1057 816.5C1057 1108.38 852.882 717.5 561 717.5C269.118 717.5 -1.60545e-05 1108.38 9.46271e-06 816.5Z" fill="url(#paint0_linear_172_69)"/>
<path d="M9.46271e-06 528.5C3.49799e-05 236.618 236.618 0.000111385 528.5 0.000136903C820.383 0.00016242 1057 236.618 1057 528.5C1057 820.383 852.882 429.5 561 429.5C269.118 429.5 -1.60545e-05 820.383 9.46271e-06 528.5Z" fill="url(#paint1_linear_172_69)" fill-opacity="0.2"/>
<defs>
<linearGradient id="paint0_linear_172_69" x1="1377" y1="967" x2="-150.5" y2="38.0002" gradientUnits="userSpaceOnUse">
<stop stop-color="#A519FA"/>
<stop offset="1" stop-color="#EB00FF"/>
</linearGradient>
<linearGradient id="paint1_linear_172_69" x1="1377" y1="679" x2="-150.5" y2="-250" gradientUnits="userSpaceOnUse">
<stop stop-color="#A519FA"/>
<stop offset="1" stop-color="#EB00FF"/>
</linearGradient>
</defs>
</svg>
